<svg id="Component_17_1" data-name="Component 17 – 1" xmlns="http://www.w3.org/2000/svg" width="41.785" height="45.58" viewBox="0 0 41.785 45.58">
  <path id="Path_44" data-name="Path 44" d="M213.108,357.7a7.131,7.131,0,0,0,6.977-5.7H206.129A7.137,7.137,0,0,0,213.108,357.7Zm0,0" transform="translate(-194.114 -312.117)"/>
  <path id="Path_45" data-name="Path 45" d="M170.961,168.308h-.023a13.265,13.265,0,0,1-12.025-18.93c-.419-.04-.841-.065-1.271-.065a13.3,13.3,0,0,0-13.3,13.3v5.3a12.74,12.74,0,0,1-4.535,9.749,3.325,3.325,0,0,0-1.045,3.41,3.489,3.489,0,0,0,3.418,2.438h30.91a3.482,3.482,0,0,0,3.473-2.633,3.329,3.329,0,0,0-1.134-3.25,12.653,12.653,0,0,1-4.472-9.31Zm0,0" transform="translate(-138.648 -145.518)"/>
  <path id="Path_46" data-name="Path 46" d="M285.662,137.495a9.5,9.5,0,1,1-9.5-9.5A9.495,9.495,0,0,1,285.662,137.495Zm0,0" transform="translate(-243.877 -128)"/>
</svg>
